<?xml version="1.0" encoding="utf-8"?>
<svg xmlns="http://www.w3.org/2000/svg" viewBox="0 0 500 500">
  <g data-padding="20" transform="matrix(0.785695, -0.005143, 0.005677, 0.867403, -698.199229, 249.133686)" style="transform-origin: 1000px 84px;">
    <g transform="translate(483.827 376.841)scale(.98058)">
      <filter id="a" width="140%" height="140%" x="-20%" y="-20%">
        <feGaussianBlur in="SourceAlpha"/>
        <feOffset result="oBlur"/>
        <feFlood flood-color="#f75cff" flood-opacity="1"/>
        <feComposite in2="oBlur" operator="in"/>
        <feMerge>
          <feMergeNode/>
          <feMergeNode in="SourceGraphic"/>
        </feMerge>
      </filter>
      <g filter="url(#a)">
        <rect width="1029.59" height="168.37" x="11.599" y="-382.825" fill="none" rx="0" ry="0"/>
        <path d="M318.344-250.84q-1.79 0-3.65-.6-1.87-.59-3.06-2.83-1.19-2.23-1.19-6.85 0-3.28.52-8.05t1.42-10.28q1.19-7.45 2.01-15.72t.82-16.91q0-7-.67-12.14t-1.72-7.97q-5.66.14-10.72.74-5.07.6-10.28 1.94-1.35.15-2.31.37-.97.22-1.87.22-1.34 0-1.93-.52-.6-.52-.6-2.61 0-2.53.75-5.29.74-2.75 2.23-4.69 1.49-2.08 3.5-3.05t4.4-1.27q3.72-.45 9.53-.82t12.74-.67 13.64-.3q10.87 0 15.57.15 4.69.15 6.33.45 2.09.3 2.91 1.26.81.97.81 3.06 0 4.02-3.57 8.05-1.49 1.78-3.13 2.75t-4.32.82q-2.39-.3-7-.45-4.62-.14-10.29-.14-.14 5.21-.81 12.14-.68 6.93-1.57 13.93-.89 6.85-1.49 13.71-.6 6.85-.6 12.51 0 5.22.97 9.17t3.95 6.78q2.09 2.08 2.09 4.47 0 3.28-3.73 5.96-3.72 2.68-9.68 2.68m74.79.45q-11.33 0-17.66-6.49-6.33-6.48-6.33-18.1 0-10.58 4.62-19.22 4.61-8.64 12.44-13.78 7.82-5.14 17.21-5.14 8.94 0 14.3 4.39 5.36 4.4 5.36 11.7 0 5.81-3.57 10.73-3.58 4.91-9.54 7.82t-13.26 2.91q-8.94 0-14.6-4.03.15 6.86 4.69 11.03 4.55 4.17 11.7 4.17 4.32 0 8.87-1.56 4.54-1.57 7.82-4.25 2.08-1.79 3.87-1.79 1.49 0 2.46.97t.97 2.46q0 3.28-5.66 8.64-9.99 9.54-23.69 9.54m2.23-35.02q5.36 0 8.94-2.23 3.58-2.24 3.58-5.67 0-2.83-2.39-4.39-2.38-1.57-6.55-1.57-5.52 0-9.61 2.91-4.1 2.91-5.89 8.12 2.09 1.34 5.36 2.09 3.28.74 6.56.74m52.01 34.57q-4.92 0-8.12-2.53-3.2-2.54-3.2-7.16 0-4.76 2.9-7.82 2.91-3.05 5.29-3.05 1.64 0 2.39 1.79.89 1.63 2.23 2.23t2.68.6q3.88 0 6.86-3.73 2.98-3.72 5.51-10.13-2.38-6.56-6.7-11.25-4.33-4.69-10.58-4.69-.9 0-1.49.07-.6.08-1.05.08-1.04 0-2.23-1.42t-1.19-4.69q0-5.22 3.42-7.75 3.43-2.53 7.6-2.53 6.26 0 11.48 5.43 5.21 5.44 8.49 13.79 2.83-5.22 6.78-9.61 3.95-4.4 8.49-7.01 4.55-2.6 8.87-2.6 4.02 0 5.66 2.01t1.64 4.54q0 2.39-1.05 4.92-1.04 2.53-2.53 4.32t-3.13 1.79q-.89 0-2.08-.45-1.05-.3-2.54-.67t-3.13-.37q-3.72 0-6.48 2.83-2.75 2.83-6.63 10.28 1.64 4.02 4.32 7.82 2.69 3.8 6.49 6.33 3.79 2.54 8.71 2.54.9 0 1.64-.08.75-.07 1.34-.07.9 0 1.42.67t.52 2.9q0 2.69-1.04 5.59-1.05 2.91-3.73 4.99-2.68 2.09-7.75 2.09-5.51 0-9.24-2.83-3.72-2.83-6.03-7.45t-3.95-9.69q-4.02 8.65-8.57 14.31-4.54 5.66-12.29 5.66m91.63.45q-9.09 0-13.04-6.04-3.95-6.03-3.95-15.57 0-3.43.37-6.7.38-3.28.82-6.56.45-3.28.9-6.41.44-3.13.74-5.96-3.13.9-6.26.9-3.27 0-3.27-2.68 0-2.84 2.53-6.93 2.53-4.1 6.33-8.12 3.8-4.03 7.6-6.78 3.8-2.76 6.48-2.76 3.28 0 3.28 5.66 0 1.49-.22 3.06-.23 1.56-.53 3.2 2.84-.6 5.74-1.04 2.91-.45 5.59-.45 3.43 0 5.29 1.19t1.86 4.62q0 3.58-1.71 7.15-1.72 3.58-3.8 3.58-.45 0-1.49-.15-1.05-.15-2.54-.45-1.93-.44-4.91-.89t-7.15-.45q-1.05 4.62-1.87 9.46-.82 4.85-.82 8.72 0 8.64 4.32 11.77 4.33 3.13 12.52 3.13 2.53 0 3.58.82 1.04.82 1.04 2.91 0 4.91-5.07 8.34-5.06 3.43-12.36 3.43m53.94 0q-7.45 0-11.54-4.32-4.1-4.33-4.1-12.52 0-5.81 1.64-11.92.74-2.53 1.19-5.07.45-2.53.45-5.06 0-6.56-4.03-8.5-3.87-2.08-3.87-4.47 0-2.38 2.01-4.76 2.01-2.39 4.99-3.95 2.98-1.57 5.96-1.57 8.5 0 8.5 13.86 0 4.47-.67 8.27t-1.57 7.23q-.59 2.38-.97 4.76-.37 2.39-.37 4.18 0 7.45 7.3 7.45 6.86 0 12.82-7.3 5.96-7.31 9.83-20.42l-.15-2.83q-.3-7.45 2.61-11.32 2.9-3.88 8.57-3.88 4.91 0 4.91 3.13 0 1.05-.37 2.68-.37 1.64-1.12 3.88-1.49 5.51-2.53 11.69-1.04 6.19-1.04 11.4 0 5.81 1.78 9.61 1.79 3.8 6.71 5.14 1.34.15 2.16.82t.82 2.76q0 3.58-2.98 7-2.98 3.43-8.64 3.43-10.88 0-10.88-15.35 0-2.68.45-8.04l-.3-.15q-9.39 24.14-27.57 24.14m74.5-.3q-2.38 0-3.79-.82-1.42-.82-.97-2.76 1.64-6.4 2.75-13.04 1.12-6.63 1.12-12.73 0-7.9-.97-11.55t-2.61-5.07q-1.63-1.41-4.02-2.16-1.04-.45-1.86-1.19-.82-.75-.82-2.09 0-2.08 1.64-4.62 1.64-2.53 4.62-4.39t6.85-1.86q5.07 0 7.08 3.5t2.01 9.16q2.68-5.96 6.63-9.46t9.91-3.5q4.02 0 6.7 1.79 2.69 1.78 2.69 5.81 0 4.02-2.61 7.52t-5.29 3.5q-.45 0-1.04-.15-.6-.14-1.05-.74-1.93-2.38-4.76-2.38-4.33 0-7.6 5.66-3.28 5.66-3.58 15.64.15 3.73.22 7.6.08 3.88.08 5.66 0 5.52-3.06 9.09-3.05 3.58-8.27 3.58m68.69.3q-8.94 0-14.37-5.59-5.44-5.59-5.44-16.02 0-7.45 2.9-14.82 2.91-7.38 8.42-13.34t13.26-9.54q7.75-3.57 17.43-3.57 8.94 0 15.28 3.05 6.33 3.06 6.33 8.27 0 1.34-.3 3.5t-.74 3.51q-.45 1.19-1.27 2.16-.82.96-2.16.96-.6 0-2.24-.44-.59 3.13-.89 6.11t-.3 5.96q0 5.66 1.72 10.05 1.71 4.4 6.78 5.44 1.34.3 2.16.9.82.59.82 2.53 0 1.64-.82 4.17t-3.13 4.55q-2.31 2.01-6.63 2.01-5.81 0-8.94-4.25t-3.13-12.14q-4.03 7.3-10.21 11.92t-14.53 4.62m4.77-15.5q5.96 0 10.51-3.72 4.54-3.73 7.07-9.39 1.64-3.58 2.54-7.82.89-4.25 1.19-8.42-2.53-1.19-5.81-1.94-3.28-.74-6.86-.74-9.09 0-14.97 5.36-5.89 5.36-5.89 13.41 0 5.96 3.28 9.61t8.94 3.65"/>
      </g>
    </g>
    <path fill="#0074d9" d="M627.92 144.306h135.423V33.505h-61.556v12.311h49.245v86.179h-110.8V95.06H627.92Z"/>
    <path fill="#0074d9" d="M677.166 21.194H627.92v24.622h12.311V33.505h12.311v36.934h-12.31v12.31h36.933V70.44h-12.311V33.505h12.31v12.311h12.312V21.194Z"/>
    <path fill="transparent" stroke="transparent" d="M485 0h1030v168H485z"/>
  </g>
</svg>